<svg width="172" height="74" viewBox="0 0 172 74" fill="none" xmlns="http://www.w3.org/2000/svg">
<path d="M64.575 41.848V37.752C64.575 34.6373 64.639 32.6747 64.767 31.864C64.9377 31.0533 65.1083 30.1787 65.279 29.24C65.4923 28.3013 65.727 27.6613 65.983 27.32C66.2817 26.936 66.623 26.488 67.007 25.976C67.4337 25.464 67.9457 25.1227 68.543 24.952C69.9937 24.44 71.4657 24.184 72.959 24.184L78.271 25.016C78.271 26.8933 77.503 27.832 75.967 27.832C75.6683 27.832 75.3697 27.8107 75.071 27.768L72.959 27.576C70.783 27.576 69.4603 28.4933 68.991 30.328C68.5217 32.12 68.287 35.2347 68.287 39.672C68.287 44.1093 68.3083 46.9893 68.351 48.312C68.3937 49.6347 68.5643 51.0427 68.863 52.536C69.1617 53.9867 69.631 54.9467 70.271 55.416C70.911 55.8427 71.807 56.056 72.959 56.056L78.527 55.416V58.36L72.959 59.448C70.655 59.448 69.119 59.1707 68.351 58.616C67.583 58.0613 67.007 57.6133 66.623 57.272C66.239 56.888 65.8977 56.2267 65.599 55.288C65.343 54.3493 65.151 53.56 65.023 52.92C64.895 52.28 64.7883 51.2347 64.703 49.784C64.6177 47.3093 64.575 44.664 64.575 41.848ZM101.022 58.36C97.7362 59.0853 95.4322 59.448 94.1095 59.448C92.8295 59.448 91.8268 59.4053 91.1015 59.32C90.4188 59.2773 89.7788 59.128 89.1815 58.872C88.6268 58.5733 88.1362 58.3387 87.7095 58.168C87.2828 57.9547 86.8988 57.5707 86.5575 57.016C86.2162 56.4187 85.9388 55.9493 85.7255 55.608C85.5122 55.224 85.3415 54.584 85.2135 53.688C85.0855 52.792 84.9788 52.0667 84.8935 51.512C84.8082 50.9573 84.7442 50.0613 84.7015 48.824C84.6588 47.544 84.6375 46.52 84.6375 45.752V38.52C84.6375 35.704 84.7015 33.8907 84.8295 33.08C84.9575 32.2267 85.0855 31.3307 85.2135 30.392C85.3415 29.4533 85.5122 28.792 85.7255 28.408C85.9388 27.9813 86.2162 27.4693 86.5575 26.872C86.8988 26.2747 87.2828 25.8693 87.7095 25.656C88.1362 25.4 88.6268 25.144 89.1815 24.888C89.7788 24.5893 90.4188 24.3973 91.1015 24.312C91.8268 24.2267 92.6375 24.184 93.5335 24.184C94.4295 24.184 95.2402 24.248 95.9655 24.376C96.6908 24.504 97.2882 24.76 97.7575 25.144C98.2695 25.528 98.6962 25.8907 99.0375 26.232C99.4215 26.5733 99.7202 27.128 99.9335 27.896C100.19 28.664 100.382 29.3253 100.51 29.88C100.638 30.392 100.723 31.224 100.766 32.376C100.851 33.4853 100.894 34.3813 100.894 35.064V38.392L101.15 41.848L88.0935 42.168L88.3495 43.768C88.3495 49.2293 88.5628 52.3867 88.9895 53.24C89.6722 54.648 90.4615 55.4587 91.3575 55.672C91.9548 55.8427 93.1068 55.928 94.8135 55.928C96.5628 55.928 98.6322 55.6507 101.022 55.096V58.36ZM88.7335 33.656C88.7335 34.424 88.7335 35.576 88.7335 37.112L88.4775 38.712H97.5655L97.2455 37.048C97.2455 33.6347 97.0108 31.2027 96.5415 29.752C96.0722 28.3013 95.0055 27.576 93.3415 27.576C91.7202 27.576 90.5682 28.024 89.8855 28.92C89.2028 29.7733 88.8188 31.352 88.7335 33.656ZM121.664 56.056V41.912C121.664 35.384 121.472 31.3733 121.088 29.88C120.704 28.344 119.552 27.576 117.632 27.576L111.36 29.816L111.616 31.416V59C109.739 59 108.629 58.872 108.288 58.616C107.989 58.36 107.84 57.5067 107.84 56.056V24.632C109.717 24.632 110.805 24.7173 111.104 24.888C111.445 25.016 111.616 25.5707 111.616 26.552L117.376 24.184C121.216 24.184 123.52 25.1653 124.288 27.128C125.056 29.0907 125.44 34.04 125.44 41.976V59C123.563 59 122.453 58.872 122.112 58.616C121.813 58.36 121.664 57.5067 121.664 56.056ZM132.586 44.408V29.688L132.842 28.088H130.09V24.632H132.842L132.586 22.392V19.576C134.463 19.576 135.551 19.704 135.85 19.96C136.191 20.216 136.362 21.0693 136.362 22.52L136.106 24.632H141.994C141.994 26.2107 141.844 27.192 141.546 27.576C141.29 27.9173 140.415 28.088 138.922 28.088H136.106L136.362 29.688V44.408C136.362 49.272 136.49 52.4293 136.746 53.88C137.002 55.3307 137.727 56.056 138.922 56.056H143.274V59L138.858 59.32C135.914 59.32 134.122 58.424 133.482 56.632C132.884 54.7973 132.586 50.7227 132.586 44.408Z" fill="black"/>
<path d="M148.363 55.416C151.349 55.8427 153.525 56.056 154.891 56.056C156.299 56.056 157.28 55.928 157.835 55.672C158.389 55.416 158.816 55.1387 159.115 54.84C159.413 54.4987 159.627 53.9653 159.755 53.24C159.925 52.3013 160.01 50.808 160.01 48.76C160.01 47.8213 159.371 46.7333 158.091 45.496C156.811 44.216 155.381 43.0427 153.803 41.976C152.267 40.8667 150.859 39.5227 149.579 37.944C148.299 36.3227 147.659 34.8507 147.659 33.528C147.659 32.1627 147.68 31.1813 147.723 30.584C147.765 29.944 147.893 29.1973 148.107 28.344C148.363 27.448 148.725 26.7653 149.195 26.296C150.389 25.1013 152.203 24.4187 154.635 24.248L154.699 18.616C156.235 18.616 157.109 18.744 157.323 19C157.579 19.2133 157.728 20.0667 157.771 21.56L157.835 24.632L161.931 25.208C161.931 27.0853 161.163 28.024 159.627 28.024C159.328 28.024 159.029 28.0027 158.731 27.96L156.491 27.576C154.059 27.576 152.565 28.1307 152.01 29.24C151.627 30.0933 151.435 31.3093 151.435 32.888C151.435 33.912 152.096 35.0853 153.419 36.408C154.784 37.688 156.256 38.8613 157.835 39.928C159.413 40.952 160.864 42.232 162.187 43.768C163.552 45.304 164.235 46.7547 164.235 48.12C164.235 49.4853 164.213 50.5093 164.171 51.192C164.171 51.832 164.064 52.7067 163.851 53.816C163.637 54.9253 163.317 55.7787 162.891 56.376C161.867 57.912 160.267 58.872 158.091 59.256L158.027 66.744C156.491 66.744 155.595 66.616 155.339 66.36C155.125 66.1467 154.997 65.2933 154.955 63.8L154.891 59.448C154.421 59.4053 152.245 59.0427 148.363 58.36V55.416Z" fill="#FF6600"/>
<path d="M54.2594 24.4399L49.9236 18.4759L19.5014 40.5784L23.8371 46.5424L54.2594 24.4399Z" fill="#FF6600"/>
<path d="M35.1031 22.9913L21.6282 46.3226H48.5779L35.1031 22.9913Z" fill="#993300"/>
<path d="M44.0243 46.2712C49.3761 46.2712 53.7146 41.9327 53.7146 36.5808C53.7146 31.229 49.3761 26.8905 44.0243 26.8905C38.6724 26.8905 34.3339 31.229 34.3339 36.5808C34.3339 41.9327 38.6724 46.2712 44.0243 46.2712Z" fill="#CC6633"/>
<path d="M51.1648 62.7296C51.1648 63.6047 50.8172 64.444 50.1985 65.0628C49.5798 65.6817 48.7406 66.0291 47.8656 66.0291C46.9906 66.0291 46.1514 65.6817 45.5327 65.0628C44.914 64.444 44.5664 63.6047 44.5664 62.7296C44.5664 61.8545 44.914 61.0152 45.5327 60.3964C46.1514 59.7776 46.9906 59.4298 47.8656 59.4298C48.7406 59.4298 49.5798 59.7776 50.1985 60.3964C50.8172 61.0152 51.1648 61.8545 51.1648 62.7296Z" fill="black"/>
<path d="M26.3647 62.7296C26.3647 63.6047 26.0171 64.444 25.3984 65.0628C24.7797 65.6817 23.9405 66.0291 23.0655 66.0291C22.1905 66.0291 21.3513 65.6817 20.7326 65.0628C20.1139 64.444 19.7663 63.6047 19.7663 62.7296C19.7663 61.8545 20.1139 61.0152 20.7326 60.3964C21.3513 59.7776 22.1905 59.4298 23.0655 59.4298C23.9405 59.4298 24.7797 59.7776 25.3984 60.3964C26.0171 61.0152 26.3647 61.8545 26.3647 62.7296Z" fill="black"/>
<path fill-rule="evenodd" clip-rule="evenodd" d="M4.67334 18.0002C4.45473 17.997 4.23768 18.0374 4.0348 18.1189C3.83192 18.2004 3.64727 18.3214 3.49157 18.4749C3.33587 18.6284 3.21223 18.8114 3.12785 19.0131C3.04346 19.2149 3 19.4314 3 19.6501C3 19.8687 3.04346 20.0852 3.12785 20.287C3.21223 20.4887 3.33587 20.6717 3.49157 20.8252C3.64727 20.9787 3.83192 21.0997 4.0348 21.1812C4.23768 21.2627 4.45473 21.3031 4.67334 21.2999H10.2451C11.4276 21.2999 12.4654 22.055 12.8354 23.1947L20.2372 46.0002L16.981 48.2817C15.8372 49.0816 15.1037 50.3291 15.1037 51.8824V52.1052C15.1037 54.5145 17.094 56.5007 19.5026 56.5007H56.3267C56.5453 56.5038 56.7623 56.4634 56.9652 56.3819C57.1681 56.3004 57.3527 56.1792 57.5084 56.0257C57.6641 55.8721 57.7878 55.6894 57.8722 55.4877C57.9565 55.286 58 55.0695 58 54.8508C58 54.6321 57.9565 54.4156 57.8722 54.2139C57.7878 54.0122 57.6641 53.8292 57.5084 53.6757C57.3527 53.5222 57.1681 53.4012 56.9652 53.3197C56.7623 53.2381 56.5453 53.1978 56.3267 53.2009H19.5026C18.8756 53.2009 18.4029 52.7303 18.4029 52.1052V51.8824C18.4029 51.6429 18.7411 51.0749 18.8711 50.9844L22.7846 48.2474H49.0151C50.6756 48.2474 52.1574 47.162 52.6666 45.5836L57.8087 29.6351C58.5951 27.1973 56.7215 24.5997 54.1572 24.5997H22.2519C22.0333 24.5966 21.8163 24.6369 21.6134 24.7185C21.4105 24.8 21.2259 24.921 21.0702 25.0745C20.9145 25.228 20.7908 25.411 20.7065 25.6127C20.6221 25.8144 20.5786 26.0307 20.5786 26.2493C20.5786 26.468 20.6221 26.6845 20.7065 26.8862C20.7908 27.088 20.9145 27.2709 21.0702 27.4245C21.2259 27.578 21.4105 27.699 21.6134 27.7805C21.8163 27.862 22.0333 27.9023 22.2519 27.8992H54.1572C54.5649 27.8992 54.7989 28.2211 54.6685 28.6252L53.6589 31.7486H26.6681C26.5224 31.7465 26.3777 31.7734 26.2424 31.8278C26.1072 31.8821 25.9841 31.9629 25.8803 32.0653C25.7765 32.1676 25.694 32.2894 25.6378 32.4238C25.5815 32.5583 25.5525 32.7028 25.5525 32.8486C25.5525 32.9944 25.5815 33.1387 25.6378 33.2731C25.694 33.4076 25.7765 33.5296 25.8803 33.6319C25.9841 33.7343 26.1072 33.8149 26.2424 33.8692C26.3777 33.9235 26.5224 33.9505 26.6681 33.9484H52.9501L51.5325 38.3479H31.0671C30.9213 38.3458 30.7766 38.3727 30.6414 38.4271C30.5061 38.4814 30.383 38.5622 30.2792 38.6646C30.1754 38.7669 30.093 38.8889 30.0367 39.0234C29.9805 39.1579 29.9515 39.3021 29.9515 39.4479C29.9515 39.5937 29.9805 39.7379 30.0367 39.8724C30.093 40.0069 30.1754 40.1289 30.2792 40.2312C30.383 40.3336 30.5061 40.4141 30.6414 40.4685C30.7766 40.5228 30.9213 40.55 31.0671 40.5479H50.8237L49.5263 44.5691C49.4502 44.8044 49.2513 44.9474 49.0151 44.9474H23.3689L15.9757 22.1764C15.1707 19.6967 12.85 18.0002 10.2451 18.0002H4.67334Z" fill="black"/>
</svg>
